<svg width="2148" height="518" xmlns="http://www.w3.org/2000/svg" xmlns:xlink="http://www.w3.org/1999/xlink" overflow="hidden"><defs><clipPath id="clip0"><rect x="1127" y="979" width="2148" height="518"/></clipPath></defs><g clip-path="url(#clip0)" transform="translate(-1127 -979)"><rect x="2053.5" y="1188.5" width="91.9998" height="114" stroke="#FFFFFF" stroke-width="3.4375" stroke-miterlimit="8" fill="#FFFFFF"/><text font-family="Cambria,Cambria_MSFontService,sans-serif" font-weight="400" font-size="50" transform="matrix(1 0 0 1 2084.02 1252)">1</text><path d="M1285.5 1342.5 2783.82 1342.5" stroke="#000000" stroke-width="3.4375" stroke-linejoin="round" stroke-miterlimit="10" fill="none" fill-rule="evenodd"/><path d="M0 0 0.000360892 347.134" stroke="#000000" stroke-width="3.4375" stroke-linejoin="round" stroke-miterlimit="10" fill="none" fill-rule="evenodd" transform="matrix(1 0 0 -1 2069.5 1341.63)"/><path d="M0 0 153.524 0.000360892" stroke="#000000" stroke-width="3.4375" stroke-linejoin="round" stroke-miterlimit="10" fill="none" fill-rule="evenodd" transform="matrix(-1 0 0 1 2937.02 1342.5)"/><path d="M1208.5 1342.5 1285.48 1342.5" stroke="#000000" stroke-width="3.4375" stroke-linejoin="round" stroke-miterlimit="10" fill="none" fill-rule="evenodd"/><path d="M2069 1034 2222.52 1342.15" stroke="#000000" stroke-width="10.3125" stroke-linejoin="round" stroke-miterlimit="10" fill="none" fill-rule="evenodd"/><path d="M0 0 115.522 153.608" stroke="#000000" stroke-width="10.3125" stroke-linejoin="round" stroke-miterlimit="10" fill="none" fill-rule="evenodd" transform="matrix(-1 0 0 1 2783.52 1188)"/><path d="M2783 1188 2898.02 1341.61" stroke="#000000" stroke-width="10.3125" stroke-linejoin="round" stroke-miterlimit="10" fill="none" fill-rule="evenodd"/><path d="M0 0 115.269 153.608" stroke="#000000" stroke-width="10.3125" stroke-linejoin="round" stroke-miterlimit="10" fill="none" fill-rule="evenodd" transform="matrix(-1 0 0 1 1323.27 1188)"/><path d="M1323 1188 1438.27 1341.61" stroke="#000000" stroke-width="10.3125" stroke-linejoin="round" stroke-miterlimit="10" fill="none" fill-rule="evenodd"/><path d="M0 0 153.56 307.468" stroke="#000000" stroke-width="10.3125" stroke-linejoin="round" stroke-miterlimit="10" fill="none" fill-rule="evenodd" transform="matrix(-1 0 0 1 2068.56 1034)"/><path d="M2898.5 1303.5 2898.5 1380.3" stroke="#000000" stroke-width="3.4375" stroke-linejoin="round" stroke-miterlimit="10" fill="none" fill-rule="evenodd"/><path d="M2668.5 1303.5 2668.5 1380.3" stroke="#000000" stroke-width="3.4375" stroke-linejoin="round" stroke-miterlimit="10" fill="none" fill-rule="evenodd"/><path d="M2783.5 1303.5 2783.5 1380.3" stroke="#000000" stroke-width="3.4375" stroke-linejoin="round" stroke-miterlimit="10" fill="none" fill-rule="evenodd"/><path d="M2222.5 1303.5 2222.5 1380.3" stroke="#000000" stroke-width="3.4375" stroke-linejoin="round" stroke-miterlimit="10" fill="none" fill-rule="evenodd"/><path d="M1915.5 1303.5 1915.5 1380.3" stroke="#000000" stroke-width="3.4375" stroke-linejoin="round" stroke-miterlimit="10" fill="none" fill-rule="evenodd"/><path d="M2069.5 1303.5 2069.5 1380.3" stroke="#000000" stroke-width="3.4375" stroke-linejoin="round" stroke-miterlimit="10" fill="none" fill-rule="evenodd"/><path d="M1439.5 1303.5 1439.5 1380.3" stroke="#000000" stroke-width="3.4375" stroke-linejoin="round" stroke-miterlimit="10" fill="none" fill-rule="evenodd"/><path d="M1208.5 1303.5 1208.5 1380.3" stroke="#000000" stroke-width="3.4375" stroke-linejoin="round" stroke-miterlimit="10" fill="none" fill-rule="evenodd"/><path d="M1323.5 1303.5 1323.5 1380.3" stroke="#000000" stroke-width="3.4375" stroke-linejoin="round" stroke-miterlimit="10" fill="none" fill-rule="evenodd"/><rect x="2610.5" y="1380.5" width="154" height="115" stroke="#FFFFFF" stroke-width="3.4375" stroke-miterlimit="8" fill="#FFFFFF"/><text font-family="Cambria,Cambria_MSFontService,sans-serif" font-weight="400" font-size="50" transform="matrix(1 0 0 1 2641.1 1444)">9</text><rect x="2700.5" y="1380.5" width="153" height="115" stroke="#FFFFFF" stroke-width="3.4375" stroke-miterlimit="8" fill="#FFFFFF"/><text font-family="Cambria,Cambria_MSFontService,sans-serif" font-weight="400" font-size="50" transform="matrix(1 0 0 1 2730.27 1444)">10</text><rect x="2835.5" y="1380.5" width="154" height="115" stroke="#FFFFFF" stroke-width="3.4375" stroke-miterlimit="8" fill="#FFFFFF"/><text font-family="Cambria,Cambria_MSFontService,sans-serif" font-weight="400" font-size="50" transform="matrix(1 0 0 1 2866.15 1444)">11</text><rect x="2184.5" y="1380.5" width="154" height="115" stroke="#FFFFFF" stroke-width="3.4375" stroke-miterlimit="8" fill="#FFFFFF"/><text font-family="Cambria,Cambria_MSFontService,sans-serif" font-weight="400" font-size="50" transform="matrix(1 0 0 1 2214.63 1444)">1</text><rect x="1992.5" y="1380.5" width="153" height="115" stroke="#FFFFFF" stroke-width="3.4375" stroke-miterlimit="8" fill="#FFFFFF"/><text font-family="Times New Roman,Times New Roman_MSFontService,sans-serif" font-weight="400" font-size="50" transform="matrix(1 0 0 1 2022.35 1444)">0</text><rect x="1838.5" y="1380.5" width="154" height="115" stroke="#FFFFFF" stroke-width="3.4375" stroke-miterlimit="8" fill="#FFFFFF"/><text font-family="Cambria,Cambria_MSFontService,sans-serif" font-weight="400" font-size="50" transform="matrix(1 0 0 1 1869.04 1444)">-<tspan font-size="50" x="16.6146" y="0">1</tspan></text><rect x="1390.5" y="1380.5" width="154" height="115" stroke="#FFFFFF" stroke-width="3.4375" stroke-miterlimit="8" fill="#FFFFFF"/><text font-family="Times New Roman,Times New Roman_MSFontService,sans-serif" font-weight="400" font-size="50" transform="matrix(1 0 0 1 1420.56 1444)">-<tspan font-family="Cambria,Cambria_MSFontService,sans-serif" font-size="50" x="16.6146" y="0">9</tspan></text><rect x="1253.5" y="1380.5" width="154" height="115" stroke="#FFFFFF" stroke-width="3.4375" stroke-miterlimit="8" fill="#FFFFFF"/><text font-family="Times New Roman,Times New Roman_MSFontService,sans-serif" font-weight="400" font-size="50" transform="matrix(1 0 0 1 1283.53 1444)">-<tspan font-family="Cambria,Cambria_MSFontService,sans-serif" font-size="50" x="16.6145" y="0">10</tspan></text><rect x="3004.5" y="1302.5" width="269" height="115" stroke="#FFFFFF" stroke-width="3.4375" stroke-miterlimit="8" fill="#FFFFFF"/><text font-family="Cambria,Cambria_MSFontService,sans-serif" font-style="italic" font-weight="400" font-size="50" transform="matrix(1 0 0 1 3034.36 1366)">f(kHz)</text><rect x="1825.5" y="980.5" width="154" height="142" stroke="#FFFFFF" stroke-width="3.4375" stroke-miterlimit="8" fill="#FFFFFF"/><text font-family="Cambria,Cambria_MSFontService,sans-serif" font-style="italic" font-weight="400" font-size="50" transform="matrix(1 0 0 1 1855.98 1044)">Y<tspan font-style="normal" font-size="50" x="27.5" y="0">(</tspan><tspan font-size="50" x="46.9793" y="0">f</tspan><tspan font-style="normal" font-size="50" x="61.875" y="0">)</tspan></text><path d="M2028.5 1188.5 2105.26 1188.5" stroke="#000000" stroke-width="3.4375" stroke-linejoin="round" stroke-miterlimit="10" fill="none" fill-rule="evenodd"/><path d="M2069.5 1073.5 2069.5 1188.85" stroke="#000000" stroke-width="3.4375" stroke-linejoin="round" stroke-miterlimit="10" fill="none" fill-rule="evenodd"/><rect x="2131.5" y="994.5" width="154" height="116" stroke="#FFFFFF" stroke-width="3.4375" stroke-miterlimit="8" fill="#FFFFFF"/><rect x="1128.5" y="1379.5" width="153" height="115" stroke="#FFFFFF" stroke-width="3.4375" stroke-miterlimit="8" fill="#FFFFFF"/></g></svg>