<svg width="2188" height="1329" xmlns="http://www.w3.org/2000/svg" xmlns:xlink="http://www.w3.org/1999/xlink" overflow="hidden"><defs><clipPath id="clip0"><rect x="1106" y="573" width="2188" height="1329"/></clipPath></defs><g clip-path="url(#clip0)" transform="translate(-1106 -573)"><rect x="2909" y="1144" width="79.9998" height="92.0001" fill="#FFFFFF"/><text font-family="Times New Roman,Times New Roman_MSFontService,sans-serif" font-weight="400" font-size="64" transform="matrix(1 0 0 1 2942.32 1222)">+</text><rect x="2936" y="1049" width="79" height="91.9998" fill="#FFFFFF"/><text font-family="Times New Roman,Times New Roman_MSFontService,sans-serif" font-weight="400" font-size="64" transform="matrix(1 0 0 1 2968.84 1127)">-</text><rect x="2909" y="1310" width="79.9998" height="92.9998" fill="#FFFFFF"/><text font-family="Times New Roman,Times New Roman_MSFontService,sans-serif" font-weight="400" font-size="64" transform="matrix(1 0 0 1 2942.32 1389)">+</text><rect x="2936" y="1407" width="79" height="93.0001" fill="#FFFFFF"/><text font-family="Times New Roman,Times New Roman_MSFontService,sans-serif" font-weight="400" font-size="64" transform="matrix(1 0 0 1 2968.84 1486)">-</text><path d="M1146.5 1035.78 1480.86 1036.01 1480.86 1039.45 1146.5 1039.22ZM1476.29 1023.98 1503.78 1037.75 1476.27 1051.48Z"/><path d="M1503.5 1037C1503.5 1003.03 1539.32 975.5 1583.5 975.5 1627.68 975.5 1663.5 1003.03 1663.5 1037 1663.5 1070.97 1627.68 1098.5 1583.5 1098.5 1539.32 1098.5 1503.5 1070.97 1503.5 1037Z" fill="#FFFFFF" fill-rule="evenodd"/><path d="M1526.93 993.513 1640.07 1080.49M1640.07 993.513 1526.93 1080.49" stroke="#000000" stroke-width="3.4375" stroke-linejoin="round" stroke-miterlimit="10" fill="none" fill-rule="evenodd"/><path d="M1503.5 1037C1503.5 1003.03 1539.32 975.5 1583.5 975.5 1627.68 975.5 1663.5 1003.03 1663.5 1037 1663.5 1070.97 1627.68 1098.5 1583.5 1098.5 1539.32 1098.5 1503.5 1070.97 1503.5 1037Z" stroke="#000000" stroke-width="3.4375" stroke-linejoin="round" stroke-miterlimit="10" fill="none" fill-rule="evenodd"/><path d="M1663.5 1037.5 1822.84 1037.75" stroke="#000000" stroke-width="3.4375" stroke-linejoin="round" stroke-miterlimit="10" fill="none" fill-rule="evenodd"/><path d="M1824.22 1037.5 1824.43 1199.35 1820.99 1199.36 1820.78 1037.5ZM1836.46 1194.76 1822.74 1222.27 1808.96 1194.79Z"/><path d="M1742.5 1284C1742.5 1250.03 1778.09 1222.5 1822 1222.5 1865.91 1222.5 1901.5 1250.03 1901.5 1284 1901.5 1317.97 1865.91 1345.5 1822 1345.5 1778.09 1345.5 1742.5 1317.97 1742.5 1284Z" fill="#FFFFFF" fill-rule="evenodd"/><path d="M1822 1222.5 1822 1345.5M1742.5 1284 1901.5 1284" stroke="#000000" stroke-width="3.4375" stroke-linejoin="round" stroke-miterlimit="10" fill="none" fill-rule="evenodd"/><path d="M1742.5 1284C1742.5 1250.03 1778.09 1222.5 1822 1222.5 1865.91 1222.5 1901.5 1250.03 1901.5 1284 1901.5 1317.97 1865.91 1345.5 1822 1345.5 1778.09 1345.5 1742.5 1317.97 1742.5 1284Z" stroke="#000000" stroke-width="3.4375" stroke-linejoin="round" stroke-miterlimit="10" fill="none" fill-rule="evenodd"/><path d="M1146.5 1560.78 1480.86 1561.01 1480.86 1564.45 1146.5 1564.22ZM1476.29 1548.98 1503.78 1562.75 1476.27 1576.48Z"/><path d="M1503.5 1562.5C1503.5 1528.26 1539.32 1500.5 1583.5 1500.5 1627.68 1500.5 1663.5 1528.26 1663.5 1562.5 1663.5 1596.74 1627.68 1624.5 1583.5 1624.5 1539.32 1624.5 1503.5 1596.74 1503.5 1562.5Z" fill="#FFFFFF" fill-rule="evenodd"/><path d="M1526.93 1518.66 1640.07 1606.34M1640.07 1518.66 1526.93 1606.34" stroke="#000000" stroke-width="3.4375" stroke-linejoin="round" stroke-miterlimit="10" fill="none" fill-rule="evenodd"/><path d="M1503.5 1562.5C1503.5 1528.26 1539.32 1500.5 1583.5 1500.5 1627.68 1500.5 1663.5 1528.26 1663.5 1562.5 1663.5 1596.74 1627.68 1624.5 1583.5 1624.5 1539.32 1624.5 1503.5 1596.74 1503.5 1562.5Z" stroke="#000000" stroke-width="3.4375" stroke-linejoin="round" stroke-miterlimit="10" fill="none" fill-rule="evenodd"/><path d="M1663.5 1562.5 1822.84 1562.75" stroke="#000000" stroke-width="3.4375" stroke-linejoin="round" stroke-miterlimit="10" fill="none" fill-rule="evenodd"/><path d="M1.71875-0.00194133 1.93647 192.754-1.50103 192.758-1.71875 0.00194133ZM13.9625 188.157 0.243602 215.673-13.5374 188.188Z" transform="matrix(1 0 0 -1 1822.5 1562.17)"/><path d="M1902.5 1284.5 2101.44 1284.5" stroke="#000000" stroke-width="3.4375" stroke-linejoin="round" stroke-miterlimit="10" fill="none" fill-rule="evenodd"/><path d="M2100.5 1037.5 2100.5 1562.45" stroke="#000000" stroke-width="3.4375" stroke-linejoin="round" stroke-miterlimit="10" fill="none" fill-rule="evenodd"/><path d="M2100.5 1035.78 2276.56 1035.78 2276.56 1039.22 2100.5 1039.22ZM2271.98 1023.75 2299.48 1037.5 2271.98 1051.25Z"/><path d="M2100.5 1560.78 2276.56 1560.97 2276.56 1564.41 2100.5 1564.22ZM2271.99 1548.94 2299.48 1562.72 2271.96 1576.44Z"/><path d="M2299.5 1037.5C2299.5 1003.26 2335.32 975.5 2379.5 975.5 2423.68 975.5 2459.5 1003.26 2459.5 1037.5 2459.5 1071.74 2423.68 1099.5 2379.5 1099.5 2335.32 1099.5 2299.5 1071.74 2299.5 1037.5Z" fill="#FFFFFF" fill-rule="evenodd"/><path d="M2322.93 993.659 2436.07 1081.34M2436.07 993.659 2322.93 1081.34" stroke="#000000" stroke-width="3.4375" stroke-linejoin="round" stroke-miterlimit="10" fill="none" fill-rule="evenodd"/><path d="M2299.5 1037.5C2299.5 1003.26 2335.32 975.5 2379.5 975.5 2423.68 975.5 2459.5 1003.26 2459.5 1037.5 2459.5 1071.74 2423.68 1099.5 2379.5 1099.5 2335.32 1099.5 2299.5 1071.74 2299.5 1037.5Z" stroke="#000000" stroke-width="3.4375" stroke-linejoin="round" stroke-miterlimit="10" fill="none" fill-rule="evenodd"/><path d="M2299.5 1562.5C2299.5 1528.26 2335.32 1500.5 2379.5 1500.5 2423.68 1500.5 2459.5 1528.26 2459.5 1562.5 2459.5 1596.74 2423.68 1624.5 2379.5 1624.5 2335.32 1624.5 2299.5 1596.74 2299.5 1562.5Z" fill="#FFFFFF" fill-rule="evenodd"/><path d="M2322.93 1518.66 2436.07 1606.34M2436.07 1518.66 2322.93 1606.34" stroke="#000000" stroke-width="3.4375" stroke-linejoin="round" stroke-miterlimit="10" fill="none" fill-rule="evenodd"/><path d="M2299.5 1562.5C2299.5 1528.26 2335.32 1500.5 2379.5 1500.5 2423.68 1500.5 2459.5 1528.26 2459.5 1562.5 2459.5 1596.74 2423.68 1624.5 2379.5 1624.5 2335.32 1624.5 2299.5 1596.74 2299.5 1562.5Z" stroke="#000000" stroke-width="3.4375" stroke-linejoin="round" stroke-miterlimit="10" fill="none" fill-rule="evenodd"/><path d="M2459.5 1035.78 2635.56 1035.78 2635.56 1039.22 2459.5 1039.22ZM2630.98 1023.75 2658.48 1037.5 2630.98 1051.25Z"/><path d="M2459.5 1560.78 2635.56 1560.97 2635.56 1564.41 2459.5 1564.22ZM2630.99 1548.94 2658.48 1562.72 2630.96 1576.44Z"/><rect x="2658.5" y="975.5" width="238" height="124" stroke="#000000" stroke-width="3.4375" stroke-miterlimit="8" fill="#FFFFFF"/><text font-family="Times New Roman,Times New Roman_MSFontService,sans-serif" font-weight="400" font-size="64" transform="matrix(1 0 0 1 2721.82 1054)">LPF</text><rect x="2658.5" y="1500.5" width="238" height="124" stroke="#000000" stroke-width="3.4375" stroke-miterlimit="8" fill="#FFFFFF"/><text font-family="Times New Roman,Times New Roman_MSFontService,sans-serif" font-weight="400" font-size="64" transform="matrix(1 0 0 1 2721.68 1578)">LPF</text><path d="M2896.5 1035.78 3191.75 1035.78 3191.75 1039.22 2896.5 1039.22ZM3187.17 1023.75 3214.67 1037.5 3187.17 1051.25Z"/><path d="M2896.5 1560.78 3191.75 1560.98 3191.75 1564.42 2896.5 1564.22ZM3187.17 1548.95 3214.67 1562.72 3187.16 1576.45Z"/><path d="M1585.22 852.5 1585.22 952.994 1581.78 952.994 1581.78 852.5ZM1597.25 948.411 1583.5 975.911 1569.75 948.411Z"/><path d="M1.71875-6.70721e-06 1.71902 69.5634-1.71848 69.5635-1.71875 6.70721e-06ZM13.7503 64.9801 0.000360892 92.4801-13.7497 64.9802Z" transform="matrix(1 0 0 -1 1583.5 1716.98)"/><path d="M1941.5 604.5 1941.74 1870.73" stroke="#000000" stroke-width="3.4375" stroke-linejoin="round" stroke-miterlimit="10" stroke-dasharray="13.75 10.3125" fill="none" fill-rule="evenodd"/><rect x="1146" y="875" width="229" height="131" fill="#FFFFFF"/><text font-family="Times New Roman,Times New Roman_MSFontService,sans-serif" font-style="italic" font-weight="400" font-size="50" transform="matrix(1 0 0 1 1179.07 941)">m<tspan font-style="normal" font-size="34" x="36.6666" y="12">1</tspan><tspan font-style="normal" font-size="50" x="53.2813" y="0">(</tspan><tspan font-size="50" x="69.8959" y="0">t</tspan><tspan font-style="normal" font-size="50" x="83.6459" y="0">)</tspan></text><rect x="1146" y="1422" width="199" height="109" fill="#FFFFFF"/><text font-family="Times New Roman,Times New Roman_MSFontService,sans-serif" font-style="italic" font-weight="400" font-size="50" transform="matrix(1 0 0 1 1179.07 1488)">m<tspan font-style="normal" font-size="34" x="36.6666" y="12">2</tspan><tspan font-style="normal" font-size="50" x="53.2813" y="0">(</tspan><tspan font-size="50" x="69.8959" y="0">t</tspan><tspan font-style="normal" font-size="50" x="83.6459" y="0">)</tspan></text><rect x="3015" y="875" width="159" height="131" fill="#FFFFFF"/><text font-family="Times New Roman,Times New Roman_MSFontService,sans-serif" font-style="italic" font-weight="400" font-size="50" transform="matrix(1 0 0 1 3048.28 945)">s<tspan font-style="normal" font-size="34" x="19.4792" y="12">1</tspan><tspan font-style="normal" font-size="50" x="36.0938" y="0">(</tspan><tspan font-size="50" x="52.7083" y="0">t</tspan><tspan font-style="normal" font-size="55" x="66.4583" y="0">)</tspan></text><rect x="3015" y="1593" width="159" height="142" fill="#FFFFFF"/><text font-family="Times New Roman,Times New Roman_MSFontService,sans-serif" font-style="italic" font-weight="400" font-size="50" transform="matrix(1 0 0 1 3048.28 1662)">s<tspan font-style="normal" font-size="34" x="19.4792" y="12">2</tspan><tspan font-style="normal" font-size="50" x="36.0938" y="0">(</tspan><tspan font-size="50" x="52.7083" y="0">t</tspan><tspan font-style="normal" font-size="55" x="66.4583" y="0">)</tspan></text><rect x="1424" y="737" width="318" height="115" fill="#FFFFFF"/><text font-family="Times New Roman,Times New Roman_MSFontService,sans-serif" font-weight="400" font-size="55" transform="matrix(1 0 0 1 1477.39 807)">cos(2π<tspan font-style="italic" font-size="55" x="146.667" y="0">f</tspan><tspan font-style="italic" font-size="37" x="162.135" y="13">c</tspan><tspan font-style="italic" font-size="55" x="178.177" y="0">t</tspan><tspan font-size="55" x="193.646" y="0">)</tspan></text><rect x="1424" y="1716" width="318" height="115" fill="#FFFFFF"/><text font-family="Times New Roman,Times New Roman_MSFontService,sans-serif" font-weight="400" font-size="55" transform="matrix(1 0 0 1 1481.98 1786)">sin(2π<tspan font-style="italic" font-size="55" x="137.5" y="0">f</tspan><tspan font-style="italic" font-size="37" x="152.969" y="13">c</tspan><tspan font-style="italic" font-size="55" x="169.011" y="0">t</tspan>)</text><rect x="2087" y="737" width="637" height="115" fill="#FFFFFF"/><text font-family="Times New Roman,Times New Roman_MSFontService,sans-serif" font-weight="400" font-size="55" transform="matrix(1 0 0 1 2241.29 807)">cos(2π <tspan font-style="italic" font-size="55" x="160.417" y="0">f</tspan><tspan font-style="italic" font-size="37" x="175.886" y="13">c </tspan><tspan font-style="italic" font-size="55" x="201.094" y="0">t + </tspan><tspan font-family="Symbol,Symbol_MSFontService,sans-serif" font-style="oblique" font-size="55" x="281.302" y="0"></tspan><tspan font-size="55" x="309.948" y="0">)</tspan></text><path d="M2381.22 852.496 2381.45 953.209 2378.01 953.216 2377.78 852.504ZM2393.47 948.598 2379.78 976.129 2365.97 948.66Z"/><path d="M1.71874-0.00517124 1.92804 69.5584-1.50944 69.5687-1.71874 0.00517124ZM13.9454 64.9389 0.278248 92.4801-13.5544 65.0216Z" transform="matrix(1 0 0 -1 2379.5 1716.98)"/><rect x="2074" y="1716" width="597" height="154" fill="#FFFFFF"/><text font-family="Times New Roman,Times New Roman_MSFontService,sans-serif" font-weight="400" font-size="55" transform="matrix(1 0 0 1 2199.03 1786)">–<tspan font-size="55" x="27.5" y="0">sin(2π </tspan><tspan font-style="italic" font-size="55" x="178.75" y="0">f</tspan><tspan font-style="italic" font-size="37" x="194.219" y="13">c </tspan><tspan font-style="italic" font-size="55" x="219.427" y="0">t + </tspan><tspan font-family="Symbol,Symbol_MSFontService,sans-serif" font-style="oblique" font-size="55" x="299.636" y="0"></tspan><tspan font-size="55" x="328.281" y="0">)</tspan></text><rect x="1583" y="604" width="319" height="93.0002" fill="#FFFFFF"/><text font-family="Times New Roman,Times New Roman_MSFontService,sans-serif" font-weight="400" font-size="50" transform="matrix(1 0 0 1 1625.71 670)">Transmitter</text><rect x="1981" y="604" width="318" height="93.0002" fill="#FFFFFF"/><text font-family="Times New Roman,Times New Roman_MSFontService,sans-serif" font-weight="400" font-size="50" transform="matrix(1 0 0 1 2014.31 670)">Receiver</text><rect x="1663" y="1160" width="79.0001" height="92.9998" fill="#FFFFFF"/><text font-family="Times New Roman,Times New Roman_MSFontService,sans-serif" font-weight="400" font-size="64" transform="matrix(1 0 0 1 1695.93 1239)">+</text><path d="M1345.5 1037.5 1345.5 1160.91" stroke="#000000" stroke-width="3.4375" stroke-linejoin="round" stroke-miterlimit="10" stroke-dasharray="13.75 10.3125" fill="none" fill-rule="evenodd"/><path d="M1345.5 1158.78 1359.25 1158.78 1359.25 1162.22 1345.5 1162.22ZM1369.56 1158.78 1383.31 1158.78 1383.31 1162.22 1369.56 1162.22ZM1393.62 1158.78 1407.37 1158.78 1407.37 1162.22 1393.62 1162.22ZM1417.69 1158.78 1431.44 1158.78 1431.44 1162.22 1417.69 1162.22ZM1441.75 1158.78 1455.5 1158.78 1455.5 1162.22 1441.75 1162.22ZM1465.81 1158.78 1479.56 1158.78 1479.56 1162.22 1465.81 1162.22ZM1489.87 1158.78 1503.62 1158.78 1503.62 1162.22 1489.87 1162.22ZM1513.94 1158.78 1527.69 1158.78 1527.69 1162.22 1513.94 1162.22ZM1538 1158.78 1551.75 1158.78 1551.75 1162.22 1538 1162.22ZM1562.06 1158.78 1575.81 1158.78 1575.81 1162.22 1562.06 1162.22ZM1586.12 1158.78 1599.87 1158.78 1599.87 1162.22 1586.12 1162.22ZM1610.19 1158.78 1623.94 1158.78 1623.94 1162.22 1610.19 1162.22ZM1634.25 1158.78 1648 1158.78 1648 1162.22 1634.25 1162.22ZM1658.31 1158.78 1672.06 1158.78 1672.06 1162.22 1658.31 1162.22ZM1682.37 1158.78 1696.12 1158.78 1696.12 1162.22 1682.37 1162.22ZM1706.44 1158.78 1720.19 1158.78 1720.19 1162.22 1706.44 1162.22ZM1730.5 1158.78 1744.25 1158.78 1744.25 1162.22 1730.5 1162.22ZM1754.56 1158.78 1768.31 1158.78 1768.31 1162.22 1754.56 1162.22ZM1778.62 1158.78 1792.37 1158.78 1792.37 1162.22 1778.62 1162.22ZM1802.69 1158.78 1816.44 1158.78 1816.44 1162.22 1802.69 1162.22ZM1826.75 1158.78 1840.5 1158.78 1840.5 1162.22 1826.75 1162.22ZM1850.81 1158.78 1864.56 1158.78 1864.56 1162.22 1850.81 1162.22ZM1874.87 1158.78 1888.62 1158.78 1888.62 1162.22 1874.87 1162.22ZM1898.94 1158.78 1912.69 1158.78 1912.69 1162.22 1898.94 1162.22ZM1923 1158.78 1936.75 1158.78 1936.75 1162.22 1923 1162.22ZM1947.06 1158.78 1960.81 1158.78 1960.81 1162.22 1947.06 1162.22ZM1971.12 1158.78 1984.87 1158.78 1984.87 1162.22 1971.12 1162.22ZM1995.19 1158.78 2008.94 1158.78 2008.94 1162.22 1995.19 1162.22ZM2019.25 1158.78 2033 1158.78 2033 1162.22 2019.25 1162.22ZM2043.31 1158.78 2057.06 1158.78 2057.06 1162.22 2043.31 1162.22ZM2067.38 1158.78 2081.12 1158.78 2081.12 1162.22 2067.38 1162.22ZM2091.44 1158.78 2105.19 1158.78 2105.19 1162.22 2091.44 1162.22ZM2115.5 1158.78 2129.25 1158.78 2129.25 1162.22 2115.5 1162.22ZM2139.56 1158.78 2153.31 1158.78 2153.31 1162.22 2139.56 1162.22ZM2163.62 1158.78 2177.38 1158.78 2177.38 1162.22 2163.62 1162.22ZM2187.69 1158.78 2201.44 1158.78 2201.44 1162.22 2187.69 1162.22ZM2211.75 1158.78 2225.5 1158.78 2225.5 1162.22 2211.75 1162.22ZM2235.81 1158.78 2249.56 1158.78 2249.56 1162.22 2235.81 1162.22ZM2259.88 1158.78 2273.62 1158.78 2273.62 1162.22 2259.88 1162.22ZM2283.94 1158.78 2297.69 1158.78 2297.69 1162.22 2283.94 1162.22ZM2308 1158.78 2321.75 1158.78 2321.75 1162.22 2308 1162.22ZM2332.06 1158.78 2345.81 1158.78 2345.81 1162.22 2332.06 1162.22ZM2356.12 1158.78 2369.88 1158.78 2369.88 1162.22 2356.12 1162.22ZM2380.19 1158.78 2393.94 1158.78 2393.94 1162.22 2380.19 1162.22ZM2404.25 1158.78 2418 1158.78 2418 1162.22 2404.25 1162.22ZM2428.31 1158.78 2436.35 1158.78 2436.35 1162.22 2428.31 1162.22ZM2431.77 1146.75 2459.27 1160.5 2431.77 1174.25Z"/><rect x="2459.5" y="1129.5" width="339" height="116" stroke="#000000" stroke-width="3.4375" stroke-miterlimit="8" stroke-dasharray="13.75 10.3125" fill="#FFFFFF"/><text font-family="Times New Roman,Times New Roman_MSFontService,sans-serif" font-weight="400" font-size="55" transform="matrix(1 0 0 1 2491.54 1199)">Delay by <tspan font-style="italic" font-size="55" x="214.271" y="0">t</tspan><tspan font-size="37" x="229.74" y="13">0</tspan></text><path d="M2798.5 1158.78 2812.25 1158.8 2812.25 1162.24 2798.5 1162.22ZM2822.56 1158.81 2836.31 1158.83 2836.31 1162.27 2822.56 1162.25ZM2846.63 1158.84 2860.38 1158.86 2860.37 1162.29 2846.62 1162.28ZM2870.69 1158.87 2884.44 1158.89 2884.44 1162.32 2870.69 1162.31ZM2894.75 1158.9 2908.5 1158.92 2908.5 1162.35 2894.75 1162.34ZM2918.81 1158.93 2932.56 1158.95 2932.56 1162.38 2918.81 1162.37ZM2942.88 1158.96 2953.44 1158.97 2953.44 1162.41 2942.87 1162.4ZM2948.87 1146.93 2976.36 1160.72 2948.84 1174.43Z"/><path d="M2976.5 1160.5C2976.5 1143.38 2994.18 1129.5 3016 1129.5 3037.82 1129.5 3055.5 1143.38 3055.5 1160.5 3055.5 1177.62 3037.82 1191.5 3016 1191.5 2994.18 1191.5 2976.5 1177.62 2976.5 1160.5Z" fill="#FFFFFF" fill-rule="evenodd"/><path d="M3016 1129.5 3016 1191.5M2976.5 1160.5 3055.5 1160.5" stroke="#000000" stroke-width="3.4375" stroke-linejoin="round" stroke-miterlimit="10" fill="none" fill-rule="evenodd"/><path d="M2976.5 1160.5C2976.5 1143.38 2994.18 1129.5 3016 1129.5 3037.82 1129.5 3055.5 1143.38 3055.5 1160.5 3055.5 1177.62 3037.82 1191.5 3016 1191.5 2994.18 1191.5 2976.5 1177.62 2976.5 1160.5Z" stroke="#000000" stroke-width="3.4375" stroke-linejoin="round" stroke-miterlimit="10" fill="none" fill-rule="evenodd"/><path d="M3017.22 1037.5 3017.22 1051.25 3013.78 1051.25 3013.78 1037.5ZM3017.22 1061.56 3017.22 1075.31 3013.78 1075.31 3013.78 1061.56ZM3017.22 1085.62 3017.22 1099.37 3013.78 1099.37 3013.78 1085.62ZM3029.25 1102.51 3015.5 1130.01 3001.75 1102.51Z"/><path d="M1345.5 1405.78 1359.25 1405.79 1359.25 1409.22 1345.5 1409.22ZM1369.56 1405.79 1383.31 1405.8 1383.31 1409.23 1369.56 1409.23ZM1393.63 1405.8 1407.38 1405.81 1407.37 1409.24 1393.62 1409.24ZM1417.69 1405.81 1431.44 1405.82 1431.44 1409.26 1417.69 1409.25ZM1441.75 1405.82 1455.5 1405.83 1455.5 1409.27 1441.75 1409.26ZM1465.81 1405.83 1479.56 1405.84 1479.56 1409.28 1465.81 1409.27ZM1489.88 1405.84 1503.63 1405.85 1503.62 1409.29 1489.87 1409.28ZM1513.94 1405.85 1527.69 1405.86 1527.69 1409.3 1513.94 1409.29ZM1538 1405.86 1551.75 1405.87 1551.75 1409.31 1538 1409.3ZM1562.06 1405.87 1575.81 1405.88 1575.81 1409.32 1562.06 1409.31ZM1586.13 1405.88 1599.88 1405.89 1599.87 1409.33 1586.12 1409.32ZM1610.19 1405.89 1623.94 1405.9 1623.94 1409.34 1610.19 1409.33ZM1634.25 1405.9 1648 1405.91 1648 1409.35 1634.25 1409.34ZM1658.31 1405.91 1672.06 1405.92 1672.06 1409.36 1658.31 1409.35ZM1682.38 1405.92 1696.13 1405.93 1696.12 1409.37 1682.37 1409.36ZM1706.44 1405.93 1720.19 1405.94 1720.19 1409.38 1706.44 1409.37ZM1730.5 1405.94 1744.25 1405.95 1744.25 1409.39 1730.5 1409.38ZM1754.56 1405.95 1768.31 1405.96 1768.31 1409.4 1754.56 1409.39ZM1778.63 1405.96 1792.38 1405.97 1792.37 1409.41 1778.62 1409.4ZM1802.69 1405.97 1816.44 1405.98 1816.44 1409.42 1802.69 1409.41ZM1826.75 1405.98 1840.5 1405.99 1840.5 1409.43 1826.75 1409.42ZM1850.81 1405.99 1864.56 1406 1864.56 1409.44 1850.81 1409.43ZM1874.88 1406 1888.63 1406.01 1888.62 1409.45 1874.87 1409.44ZM1898.94 1406.01 1912.69 1406.02 1912.69 1409.46 1898.94 1409.45ZM1923 1406.02 1936.75 1406.03 1936.75 1409.47 1923 1409.46ZM1947.06 1406.03 1960.81 1406.04 1960.81 1409.48 1947.06 1409.47ZM1971.13 1406.04 1984.88 1406.05 1984.87 1409.49 1971.12 1409.48ZM1995.19 1406.05 2008.94 1406.06 2008.94 1409.5 1995.19 1409.49ZM2019.25 1406.06 2033 1406.07 2033 1409.51 2019.25 1409.5ZM2043.31 1406.07 2057.06 1406.08 2057.06 1409.52 2043.31 1409.51ZM2067.38 1406.08 2081.13 1406.09 2081.12 1409.53 2067.37 1409.52ZM2091.44 1406.09 2105.19 1406.1 2105.19 1409.54 2091.44 1409.53ZM2115.5 1406.1 2129.25 1406.11 2129.25 1409.55 2115.5 1409.54ZM2139.56 1406.11 2153.31 1406.12 2153.31 1409.56 2139.56 1409.55ZM2163.63 1406.12 2177.38 1406.13 2177.37 1409.57 2163.62 1409.56ZM2187.69 1406.14 2201.44 1406.14 2201.44 1409.58 2187.69 1409.57ZM2211.75 1406.15 2225.5 1406.15 2225.5 1409.59 2211.75 1409.58ZM2235.81 1406.16 2249.56 1406.16 2249.56 1409.6 2235.81 1409.59ZM2259.88 1406.17 2273.63 1406.17 2273.62 1409.61 2259.87 1409.6ZM2283.94 1406.18 2297.69 1406.18 2297.69 1409.62 2283.94 1409.61ZM2308 1406.19 2321.75 1406.19 2321.75 1409.63 2308 1409.62ZM2332.06 1406.2 2345.81 1406.2 2345.81 1409.64 2332.06 1409.63ZM2356.13 1406.21 2369.88 1406.21 2369.87 1409.65 2356.12 1409.64ZM2380.19 1406.22 2393.94 1406.22 2393.94 1409.66 2380.19 1409.65ZM2404.25 1406.23 2418 1406.23 2418 1409.67 2404.25 1409.66ZM2428.31 1406.24 2436.36 1406.24 2436.36 1409.68 2428.31 1409.67ZM2431.77 1394.21 2459.27 1407.97 2431.76 1421.71Z"/><rect x="2459.5" y="1362.5" width="339" height="107" stroke="#000000" stroke-width="3.4375" stroke-miterlimit="8" stroke-dasharray="13.75 10.3125" fill="#FFFFFF"/><text font-family="Times New Roman,Times New Roman_MSFontService,sans-serif" font-weight="400" font-size="55" transform="matrix(1 0 0 1 2491.54 1432)">Delay by <tspan font-style="italic" font-size="55" x="214.271" y="0">t</tspan><tspan font-size="37" x="229.74" y="13">0</tspan></text><path d="M2798.5 1405.78 2812.25 1405.82 2812.25 1409.26 2798.5 1409.22ZM2822.57 1405.84 2836.32 1405.88 2836.31 1409.32 2822.56 1409.28ZM2846.63 1405.91 2860.38 1405.94 2860.37 1409.38 2846.62 1409.35ZM2870.69 1405.97 2884.44 1406.01 2884.43 1409.45 2870.68 1409.41ZM2894.75 1406.03 2908.5 1406.07 2908.5 1409.51 2894.75 1409.47ZM2918.82 1406.1 2932.57 1406.13 2932.56 1409.57 2918.81 1409.54ZM2942.88 1406.16 2953.2 1406.19 2953.19 1409.63 2942.87 1409.6ZM2948.65 1394.15 2976.11 1407.97 2948.58 1421.65Z"/><path d="M2975.5 1408C2975.5 1391.16 2993.41 1377.5 3015.5 1377.5 3037.59 1377.5 3055.5 1391.16 3055.5 1408 3055.5 1424.84 3037.59 1438.5 3015.5 1438.5 2993.41 1438.5 2975.5 1424.84 2975.5 1408Z" fill="#FFFFFF" fill-rule="evenodd"/><path d="M3015.5 1377.5 3015.5 1438.5M2975.5 1408 3055.5 1408" stroke="#000000" stroke-width="3.4375" stroke-linejoin="round" stroke-miterlimit="10" fill="none" fill-rule="evenodd"/><path d="M2975.5 1408C2975.5 1391.16 2993.41 1377.5 3015.5 1377.5 3037.59 1377.5 3055.5 1391.16 3055.5 1408 3055.5 1424.84 3037.59 1438.5 3015.5 1438.5 2993.41 1438.5 2975.5 1424.84 2975.5 1408Z" stroke="#000000" stroke-width="3.4375" stroke-linejoin="round" stroke-miterlimit="10" fill="none" fill-rule="evenodd"/><path d="M1345.5 1407.5 1345.5 1562.03" stroke="#000000" stroke-width="3.4375" stroke-linejoin="round" stroke-miterlimit="10" stroke-dasharray="13.75 10.3125" fill="none" fill-rule="evenodd"/><path d="M1.71875-0.00386833 1.74969 13.7461-1.6878 13.7538-1.71875 0.00386833ZM1.7729 24.0586 1.80385 37.8085-1.63364 37.8163-1.66459 24.0663ZM1.82706 48.121 1.85801 61.871-1.57949 61.8787-1.61043 48.1287ZM1.88122 72.1834 1.91216 85.9334-1.52533 85.9411-1.55628 72.1912ZM1.93537 96.2459 1.94542 100.709-1.49208 100.716-1.50212 96.2536ZM13.9663 96.0982 0.278248 123.629-13.5336 96.1601Z" transform="matrix(1 0 0 -1 3015.5 1562.13)"/><path d="M3055.5 1158.78 3069.25 1158.78 3069.25 1162.22 3055.5 1162.22ZM3079.56 1158.78 3093.31 1158.78 3093.31 1162.22 3079.56 1162.22ZM3103.62 1158.78 3117.38 1158.78 3117.38 1162.22 3103.62 1162.22ZM3127.69 1158.78 3141.44 1158.78 3141.44 1162.22 3127.69 1162.22ZM3147.15 1146.75 3174.65 1160.5 3147.15 1174.25Z"/><path d="M3055.5 1405.78 3069.25 1405.78 3069.25 1409.22 3055.5 1409.22ZM3079.56 1405.78 3093.31 1405.78 3093.31 1409.22 3079.56 1409.22ZM3103.62 1405.78 3117.38 1405.78 3117.38 1409.22 3103.62 1409.22ZM3127.69 1405.78 3141.44 1405.78 3141.44 1409.22 3127.69 1409.22ZM3147.15 1393.75 3174.65 1407.5 3147.15 1421.25Z"/><rect x="2485" y="875" width="159" height="124" fill="#FFFFFF"/><text font-family="Times New Roman,Times New Roman_MSFontService,sans-serif" font-style="italic" font-weight="400" font-size="50" transform="matrix(1 0 0 1 2518.33 945)">x<tspan font-style="normal" font-size="34" x="22.3438" y="12">1</tspan><tspan font-style="normal" font-size="50" x="38.9585" y="0">(</tspan><tspan font-size="50" x="55.573" y="0">t</tspan><tspan font-style="normal" font-size="55" x="69.323" y="0">)</tspan></text><rect x="2485" y="1595" width="159" height="101" fill="#FFFFFF"/><text font-family="Times New Roman,Times New Roman_MSFontService,sans-serif" font-style="italic" font-weight="400" font-size="50" transform="matrix(1 0 0 1 2518.33 1665)">x<tspan font-style="normal" font-size="34" x="22.3438" y="12">2</tspan><tspan font-style="normal" font-size="50" x="38.9585" y="0">(</tspan><tspan font-size="50" x="55.573" y="0">t</tspan><tspan font-style="normal" font-size="55" x="69.323" y="0">)</tspan></text><rect x="1663" y="1312" width="80.0001" height="92.9998" fill="#FFFFFF"/><text font-family="Times New Roman,Times New Roman_MSFontService,sans-serif" font-weight="400" font-size="64" transform="matrix(1 0 0 1 1696.04 1391)">-</text></g></svg>